<?xml version="1.0" encoding="UTF-8"?>
<svg id="Layer_2" data-name="Layer 2" xmlns="http://www.w3.org/2000/svg" viewBox="0 0 58.74 23.33">
  <g id="Layer_1-2" data-name="Layer 1">
    <g>
      <path d="M22.71.7h.22v1.18h1.56V.7h.22v2.7h-.22v-1.35h-1.56v1.35h-.22V.7Z" fill="#1d1d1b"/>
      <path d="M25.44,2.43c0-.66.5-1.04,1.1-1.04s1.1.38,1.1,1.04-.5,1.03-1.1,1.03-1.1-.38-1.1-1.03ZM27.42,2.43c0-.52-.37-.88-.88-.88s-.88.36-.88.88.37.87.88.87.88-.35.88-.87Z" fill="#1d1d1b"/>
      <path d="M29.02,2.67v-1.08h-.69v-.14l.69-.02.03-.65h.18v.65h1.2v.16h-1.2v1.09c0,.38.13.61.63.61.24,0,.42-.04.6-.1l.06.14c-.21.07-.41.12-.69.12-.62,0-.81-.32-.81-.79Z" fill="#1d1d1b"/>
      <path d="M31.15,2.42c0-.64.54-1.04,1.13-1.04s1.01.35,1.01.91c0,.05,0,.1-.01.15h-2.03v-.15h1.94l-.09.07c0-.56-.33-.83-.82-.83s-.92.32-.92.87.46.88.99.88c.31,0,.55-.09.76-.21l.09.14c-.21.12-.46.23-.86.23-.65,0-1.19-.39-1.19-1.03Z" fill="#1d1d1b"/>
      <path d="M34.9,2.81V.61h-.86v-.16h1.07v2.38c0,.31.17.46.49.46.15,0,.3-.03.47-.1l.07.14c-.19.08-.34.12-.56.12-.43,0-.67-.2-.67-.64Z" fill="#1d1d1b"/>
    </g>
    <g>
      <path d="M8,20.55c0-.73.64-1.18,1.58-1.18.43,0,.76.13.96.27l-.15.11c-.2-.14-.47-.23-.8-.23-.81,0-1.31.4-1.31,1.03s.5,1.05,1.29,1.05c.38,0,.66-.1.92-.28l.15.1c-.28.2-.62.33-1.1.33-.9,0-1.54-.46-1.54-1.19Z" fill="#1d1d1b"/>
      <path d="M11.33,20.87c0-.56.6-.88,1.3-.88s1.3.32,1.3.88-.6.87-1.3.87-1.3-.32-1.3-.87ZM13.67,20.87c0-.44-.44-.74-1.04-.74s-1.04.3-1.04.74.44.74,1.04.74,1.04-.3,1.04-.74Z" fill="#1d1d1b"/>
      <path d="M14.89,20.03h.21l.03.24h.01c.27-.16.65-.28,1-.28.76,0,1.13.33,1.13.85,0,.57-.58.9-1.25.9-.26,0-.62-.09-.89-.24h-.01v.34s.01.61.01.61h-.25v-2.43ZM17.02,20.85c0-.41-.26-.72-.92-.72-.28,0-.63.1-.96.31v.93c.31.18.66.25.87.25.59,0,1.01-.31,1.01-.76Z" fill="#1d1d1b"/>
      <path d="M18.08,20.87c0-.54.64-.88,1.34-.88s1.2.29,1.2.77c0,.04,0,.09-.01.13h-2.41v-.13h2.3l-.1.06c0-.47-.4-.7-.97-.7s-1.09.27-1.09.74.54.75,1.17.75c.36,0,.65-.07.9-.18l.1.12c-.24.1-.55.2-1.02.2-.77,0-1.41-.33-1.41-.88Z" fill="#1d1d1b"/>
      <path d="M21.59,20.03h.21l.03.32h.02c.31-.21.63-.36,1.06-.36.65,0,.96.22.96.67v1.04h-.25v-1.02c0-.37-.22-.55-.75-.55-.38,0-.64.12-1.03.38v1.2h-.25v-1.67Z" fill="#1d1d1b"/>
      <path d="M24.94,19.2h.25v.73l-.02.44h.01c.32-.22.65-.37,1.07-.37.65,0,.96.22.96.67v1.04h-.25v-1.02c0-.37-.22-.55-.75-.55-.38,0-.64.12-1.03.38v1.2h-.25v-2.5Z" fill="#1d1d1b"/>
      <path d="M28.21,21.29c0-.37.6-.55,2.06-.63,0-.27-.18-.53-.8-.53-.4,0-.8.13-1.01.23l-.12-.11c.21-.1.68-.25,1.16-.25.72,0,1.02.29,1.02.65v1.07h-.21l-.03-.25h-.01c-.31.15-.72.29-1.12.29-.48,0-.94-.14-.94-.46ZM30.27,21.31v-.53c-1.37.08-1.8.24-1.8.5,0,.24.36.33.72.33s.7-.1,1.08-.3Z" fill="#1d1d1b"/>
      <path d="M31.51,22.02c0-.13.16-.28.45-.39h0c-.14-.06-.28-.14-.28-.28,0-.1.11-.22.32-.31h0c-.17-.1-.32-.25-.32-.45,0-.34.45-.6,1-.6.15,0,.26.01.37.04h1.12v.13h-.81c.16.1.31.25.31.42,0,.34-.44.58-.99.58-.16,0-.34-.03-.51-.08-.16.06-.26.14-.26.23,0,.16.24.23.62.23h.67c.68,0,.98.11.98.38,0,.29-.55.57-1.42.57s-1.25-.19-1.25-.48ZM33.93,21.96c0-.19-.23-.25-.7-.25h-.64c-.13,0-.28,0-.41-.03-.32.11-.43.23-.43.35,0,.2.33.35,1,.35.74,0,1.18-.22,1.18-.43ZM33.44,20.59c0-.27-.34-.47-.75-.47s-.75.2-.75.47.34.46.75.46.75-.19.75-.46Z" fill="#1d1d1b"/>
      <path d="M34.83,20.87c0-.54.64-.88,1.34-.88s1.2.29,1.2.77c0,.04,0,.09-.01.13h-2.41v-.13h2.3l-.1.06c0-.47-.4-.7-.97-.7s-1.09.27-1.09.74.54.75,1.17.75c.36,0,.65-.07.9-.18l.1.12c-.24.1-.55.2-1.02.2-.77,0-1.41-.33-1.41-.88Z" fill="#1d1d1b"/>
      <path d="M38.33,20.03h.21l.03.32h.02c.31-.21.63-.36,1.06-.36.65,0,.96.22.96.67v1.04h-.25v-1.02c0-.37-.22-.55-.75-.55-.38,0-.64.12-1.03.38v1.2h-.25v-1.67Z" fill="#1d1d1b"/>
      <path d="M42.44,21.52c0-.14.16-.23.33-.23s.33.08.33.23-.16.23-.33.23-.33-.08-.33-.23Z" fill="#1d1d1b"/>
      <path d="M44.82,20.87c0-.54.59-.88,1.26-.88.34,0,.61.09.88.24h.01v-.34s-.01-.69-.01-.69h.25v2.5h-.21l-.03-.25h-.01c-.24.15-.58.29-.96.29-.7,0-1.18-.31-1.18-.87ZM46.96,21.3v-.93c-.3-.18-.58-.25-.86-.25-.57,0-1.02.32-1.02.74,0,.44.36.74.96.74.31,0,.62-.11.92-.31Z" fill="#1d1d1b"/>
      <path d="M48.48,19.2h.25v1.84h.02l1.72-1.01h.31l-2.05,1.2v.47h-.25v-2.5ZM49.46,20.74l.17-.11,1.34,1.08h-.29l-1.22-.97Z" fill="#1d1d1b"/>
    </g>
    <line y1="15.33" x2="58.74" y2="15.33" fill="#a1ad58" stroke="#a1ad58" stroke-miterlimit="10"/>
    <text transform="translate(8.58 14.36) scale(1.26 1)" fill="#472916" font-family="Noteworthy-Light, Noteworthy" font-size="10.02" font-weight="300"><tspan x="0" y="0" letter-spacing="-.02em">W</tspan><tspan x="7.31" y="0" letter-spacing=".03em">a</tspan><tspan x="12.1" y="0" letter-spacing="-.07em">k</tspan><tspan x="16.15" y="0">e-</tspan><tspan x="23.94" y="0" letter-spacing=".03em">u</tspan><tspan x="28.39" y="0">p</tspan></text>
  </g>
</svg>